<svg width="18" height="20" viewBox="0 0 18 20" fill="none" xmlns="http://www.w3.org/2000/svg">
<path d="M16.8049 1.02617C17.0748 0.750676 17.5155 0.750676 17.7854 1.02617C18.0642 1.30167 18.0642 1.74191 17.7854 2.01738L1.17993 18.9695C1.04508 19.1072 0.874369 19.1804 0.694579 19.1805C0.514703 19.1805 0.343171 19.1078 0.20825 18.9793C-0.0615054 18.7039 -0.0612886 18.2538 0.20825 17.9783L2.85376 15.2752C2.05734 14.5292 1.32083 13.6337 0.677 12.6062C-0.222434 11.1646 -0.222389 8.82339 0.677 7.38164C1.72048 5.7103 2.9979 4.39683 4.41919 3.49687C5.84034 2.61539 7.39628 2.12878 8.99731 2.12871C10.7833 2.12871 12.5187 2.72681 14.0588 3.82988L16.8049 1.02617ZM15.1682 6.14043C15.546 5.75477 16.1762 5.79095 16.509 6.22246C16.7968 6.58968 17.0754 6.98475 17.3362 7.40703C18.1908 8.79366 18.2357 11.1268 17.3811 12.5135C16.3287 14.2306 15.0246 15.5806 13.5764 16.4988C12.1551 17.3896 10.5985 17.867 8.99731 17.867C7.97193 17.867 6.97341 17.6741 6.01098 17.2977C5.40845 17.0589 5.26455 16.251 5.71411 15.7918C6.63263 14.8541 7.90507 13.5554 7.927 13.533C8.5207 13.735 9.20464 13.7714 9.91528 13.5877C11.1836 13.2663 12.2088 12.2193 12.5237 10.9246C12.7036 10.1992 12.6678 9.50134 12.47 8.89531L15.1682 6.14043ZM11.553 9.84062C11.5709 9.89568 11.5706 9.9418 11.5706 9.99687C11.5705 11.4385 10.4194 12.6227 8.99829 12.6229C8.94432 12.6229 8.89894 12.6227 8.84497 12.6043L11.553 9.84062ZM8.99731 6.28887C6.98249 6.28906 5.36352 7.95109 5.36352 9.99883C5.3636 10.7712 5.5918 11.4866 5.98364 12.0789L6.76098 11.284C6.54921 10.9016 6.42309 10.462 6.42309 9.99883C6.42331 8.55725 7.57518 7.37285 8.99634 7.37285C9.44971 7.3729 9.87984 7.50067 10.2541 7.7166L11.0364 6.91777C10.456 6.51613 9.75426 6.28887 8.99731 6.28887Z" fill="#666666"/>
</svg>
