<svg width="18" height="16" viewBox="0 0 18 16" fill="none" xmlns="http://www.w3.org/2000/svg">
<path d="M8.99983 0.130859C12.2038 0.130859 15.246 2.05079 17.325 5.38574C18.225 6.82819 18.225 9.18101 17.325 10.6143C16.2811 12.2862 15.0028 13.5997 13.5809 14.5C12.1589 15.3912 10.6018 15.8691 8.99983 15.8691C5.79591 15.8691 2.75363 13.9584 0.674634 10.6143C-0.225366 9.17182 -0.225366 6.82819 0.674634 5.38574C1.71858 3.71375 2.99688 2.40034 4.41877 1.5C5.84077 0.608812 7.39783 0.130859 8.99983 0.130859ZM8.99983 4.29297C6.98383 4.29297 5.36409 5.95606 5.36409 8.00488C5.36426 10.0535 6.98394 11.7158 8.99983 11.7158C11.0157 11.7158 12.6354 10.0535 12.6356 8.00488C12.6356 5.95606 11.0158 4.29297 8.99983 4.29297ZM9.00276 5.37793C10.4154 5.37819 11.5758 6.56279 11.576 8.00488C11.576 9.44716 10.4155 10.6238 9.00276 10.624C7.58976 10.624 6.43733 9.44732 6.43733 8.00488C6.43755 6.55345 7.58989 5.37793 9.00276 5.37793Z" fill="#666666"/>
</svg>
