<svg width="17" height="16" viewBox="0 0 17 16" fill="none" xmlns="http://www.w3.org/2000/svg">
<path d="M11.5176 3.03014e-07C12.5353 -1.45791e-05 13.3558 0.000178491 14.001 0.0869144C14.6707 0.17699 15.2347 0.369498 15.6826 0.817383C16.1305 1.26529 16.323 1.82925 16.4131 2.49902C16.4999 3.14421 16.5 3.96468 16.5 4.98242V11.0176C16.5 12.0353 16.4999 12.8558 16.4131 13.501C16.323 14.1708 16.1305 14.7346 15.6826 15.1826C15.2347 15.6305 14.6707 15.823 14.001 15.9131C13.3558 15.9998 12.5353 16 11.5176 16H10.6914C9.67368 16 8.85317 15.9998 8.20801 15.9131C7.53821 15.823 6.97429 15.6305 6.52637 15.1826C6.13577 14.792 5.9386 14.312 5.83496 13.748C5.73427 13.2 5.71445 12.5285 5.70996 11.7236C5.70848 11.4157 5.95675 11.1651 6.26465 11.1631C6.5729 11.1614 6.82444 11.4095 6.82617 11.7178C6.8307 12.5314 6.85224 13.1081 6.93262 13.5459C7.0101 13.9677 7.13429 14.2123 7.31543 14.3936C7.52138 14.5995 7.81072 14.7332 8.35645 14.8066C8.91863 14.8822 9.66416 14.8838 10.7324 14.8838H11.4766C12.5446 14.8838 13.2894 14.8821 13.8516 14.8066C14.3977 14.7332 14.6876 14.5995 14.8936 14.3936C15.0995 14.1876 15.2332 13.8983 15.3066 13.3525C15.3822 12.7904 15.3838 12.0448 15.3838 10.9766V5.02344C15.3838 3.95523 15.3822 3.20958 15.3066 2.64746C15.2332 2.10174 15.0995 1.81234 14.8936 1.60645C14.6876 1.40048 14.3977 1.26677 13.8516 1.19336C13.2894 1.11783 12.5446 1.11621 11.4766 1.11621H10.7324C9.66416 1.11621 8.91863 1.11778 8.35645 1.19336C7.81072 1.26678 7.52138 1.40057 7.31543 1.60645C7.13429 1.78762 7.0101 2.03229 6.93262 2.4541C6.85224 2.89184 6.8307 3.4686 6.82617 4.28223C6.82444 4.59045 6.5729 4.83863 6.26465 4.83691C5.95674 4.83494 5.70847 4.58427 5.70996 4.27637C5.71445 3.47151 5.73427 2.80009 5.83496 2.25195C5.93859 1.68799 6.13576 1.20796 6.52637 0.817383C6.97429 0.369526 7.53822 0.176976 8.20801 0.0869144C8.85317 0.00017222 9.67368 -1.45807e-05 10.6914 3.03014e-07H11.5176ZM8.44824 5.40332C8.64879 5.16939 9.00129 5.14247 9.23535 5.34277L11.8408 7.5752C11.9645 7.6812 12.0351 7.8362 12.0352 7.99902C12.0352 8.16189 11.9644 8.31681 11.8408 8.42285L9.23535 10.6553C9.00129 10.8558 8.64886 10.8287 8.44824 10.5947C8.24806 10.3607 8.27492 10.0081 8.50879 9.80762L9.96875 8.55762H1.05859C0.750322 8.55762 0.5 8.30727 0.5 7.99902C0.500116 7.69088 0.750393 7.44141 1.05859 7.44141H9.96875L8.50879 6.19043C8.27505 5.98982 8.24789 5.63727 8.44824 5.40332Z" fill="white"/>
</svg>
