<svg width="115" height="115" viewBox="0 0 115 115" fill="none" xmlns="http://www.w3.org/2000/svg">
<path d="M21.4009 85.2V33.84H3.00093V29.2H44.8409V33.84H26.4409V85.2H21.4009Z" fill="black"/>
<path d="M43.6809 85.2V29.2H59.9209C64.5609 29.2 68.5876 29.9466 72.0009 31.44C75.4143 32.88 78.2143 34.9066 80.4009 37.52C82.6409 40.08 84.2943 43.0666 85.3609 46.48C86.4809 49.84 87.0409 53.4133 87.0409 57.2C87.0409 60.9866 86.4809 64.5866 85.3609 68C84.2943 71.36 82.6409 74.3466 80.4009 76.96C78.2143 79.52 75.4143 81.5466 72.0009 83.04C68.5876 84.4799 64.5609 85.2 59.9209 85.2H43.6809ZM48.5609 80.48H59.6809C64.9609 80.48 69.2276 79.4133 72.4809 77.28C75.7876 75.0933 78.1876 72.24 79.6809 68.72C81.2276 65.1466 82.0009 61.3066 82.0009 57.2C82.0009 53.04 81.2276 49.2 79.6809 45.68C78.1876 42.1066 75.7876 39.2533 72.4809 37.12C69.2276 34.9333 64.9609 33.84 59.6809 33.84H48.5609V80.48Z" fill="black"/>
<path d="M86.3209 86.2399C81.2543 86.2399 76.8009 85.0399 72.9609 82.6399C69.1209 80.2399 66.1076 76.8533 63.9209 72.4799C61.7876 68.1066 60.7209 62.9866 60.7209 57.1199C60.7209 51.2533 61.7876 46.1599 63.9209 41.8399C66.1076 37.4666 69.1209 34.0799 72.9609 31.6799C76.8009 29.2266 81.2543 27.9999 86.3209 27.9999C91.3343 27.9999 95.761 29.2266 99.601 31.6799C103.441 34.0799 106.428 37.4666 108.561 41.8399C110.748 46.1599 111.841 51.2533 111.841 57.1199C111.841 62.9866 110.748 68.1066 108.561 72.4799C106.428 76.8533 103.441 80.2399 99.601 82.6399C95.761 85.0399 91.3343 86.2399 86.3209 86.2399ZM86.3209 81.4399C90.3209 81.4399 93.841 80.4799 96.881 78.5599C99.9743 76.5866 102.374 73.7866 104.081 70.1599C105.841 66.4799 106.721 62.1333 106.721 57.1199C106.721 52.1066 105.841 47.7866 104.081 44.1599C102.374 40.5333 99.9743 37.7599 96.881 35.8399C93.841 33.8666 90.3209 32.8799 86.3209 32.8799C82.3209 32.8799 78.7743 33.8666 75.6809 35.8399C72.5876 37.7599 70.1609 40.5333 68.4009 44.1599C66.6409 47.7866 65.7609 52.1066 65.7609 57.1199C65.7609 62.1333 66.6409 66.4799 68.4009 70.1599C70.1609 73.7866 72.5876 76.5866 75.6809 78.5599C78.7743 80.4799 82.3209 81.4399 86.3209 81.4399Z" fill="black"/>
</svg>
